HIERARCHY
ROOT Hips
{
	OFFSET 0.000000 0.000000 0.000000
	CHANNELS 6 Xposition Yposition Zposition Zrotation Yrotation Xrotation 
	JOINT LHipJoint
	{
		OFFSET 0.000000 0.000000 0.000000
		CHANNELS 3 Zrotation Yrotation Xrotation
		JOINT LeftUpLeg
		{
			OFFSET 1.363060 -1.794630 0.839290
			CHANNELS 3 Zrotation Yrotation Xrotation
			JOINT LeftLeg
			{
				OFFSET 2.448110 -6.726130 0.000000
				CHANNELS 3 Zrotation Yrotation Xrotation
				JOINT LeftFoot
				{
					OFFSET 2.562200 -7.039590 0.000000
					CHANNELS 3 Zrotation Yrotation Xrotation
					JOINT LeftToeBase
					{
						OFFSET 0.157640 -0.433110 2.322550
						CHANNELS 3 Zrotation Yrotation Xrotation
						End Site
						{
							OFFSET 0.000000 0.000000 0.000000
						}
					}
				}
			}
		}
	}
	JOINT RHipJoint
	{
		OFFSET 0.000000 0.000000 0.000000
		CHANNELS 3 Zrotation Yrotation Xrotation
		JOINT RightUpLeg
		{
			OFFSET -1.305520 -1.794630 0.839290
			CHANNELS 3 Zrotation Yrotation Xrotation
			JOINT RightLeg
			{
				OFFSET -2.542530 -6.985550 0.000000
				CHANNELS 3 Zrotation Yrotation Xrotation
				JOINT RightFoot
				{
					OFFSET -2.568260 -7.056230 0.000000
					CHANNELS 3 Zrotation Yrotation Xrotation
					JOINT RightToeBase
					{
						OFFSET -0.164730 -0.452590 2.363150
						CHANNELS 3 Zrotation Yrotation Xrotation
						End Site
						{
							OFFSET 0.000000 0.000000 0.000000
						}
					}
				}
			}
		}
	}
	JOINT LowerBack
	{
		OFFSET 0.000000 0.000000 0.000000
		CHANNELS 3 Zrotation Yrotation Xrotation
		JOINT Spine
		{
			OFFSET 0.028270 2.035590 -0.193380
			CHANNELS 3 Zrotation Yrotation Xrotation
			JOINT Spine1
			{
				OFFSET 0.056720 2.048850 -0.042750
				CHANNELS 3 Zrotation Yrotation Xrotation
				JOINT Neck
				{
					OFFSET 0.000000 0.000000 0.000000
					CHANNELS 3 Zrotation Yrotation Xrotation
					JOINT Neck1
					{
						OFFSET -0.054170 1.746240 0.172020
						CHANNELS 3 Zrotation Yrotation Xrotation
						JOINT Head
						{
							OFFSET 0.104070 1.761360 -0.123970
							CHANNELS 3 Zrotation Yrotation Xrotation
							End Site
							{
								OFFSET 0.000000 0.000000 0.000000
							}
						}
					}
				}
				JOINT LeftShoulder
				{
					OFFSET 0.000000 0.000000 0.000000
					CHANNELS 3 Zrotation Yrotation Xrotation
					JOINT LeftArm
					{
						OFFSET 3.362410 1.200890 -0.311210
						CHANNELS 3 Zrotation Yrotation Xrotation
						JOINT LeftForeArm
						{
							OFFSET 4.983000 -0.000000 -0.000000
							CHANNELS 3 Zrotation Yrotation Xrotation
							JOINT LeftHand
							{
								OFFSET 3.483560 -0.000000 -0.000000
								CHANNELS 3 Zrotation Yrotation Xrotation
								JOINT LeftFingerBase
								{
									OFFSET 0.000000 0.000000 0.000000
									CHANNELS 3 Zrotation Yrotation Xrotation
									JOINT LeftHandIndex1
									{
										OFFSET 0.715260 -0.000000 -0.000000
										CHANNELS 3 Zrotation Yrotation Xrotation
										End Site
										{
											OFFSET 0.000000 0.000000 0.000000
										}
									}
								}
								JOINT LThumb
								{
									OFFSET 0.000000 0.000000 0.000000
									CHANNELS 3 Zrotation Yrotation Xrotation
									End Site
									{
										OFFSET 0.000000 0.000000 0.000000
									}
								}
							}
						}
					}
				}
				JOINT RightShoulder
				{
					OFFSET 0.000000 0.000000 0.000000
					CHANNELS 3 Zrotation Yrotation Xrotation
					JOINT RightArm
					{
						OFFSET -3.136600 1.374050 -0.404650
						CHANNELS 3 Zrotation Yrotation Xrotation
						JOINT RightForeArm
						{
							OFFSET -5.241900 -0.000000 -0.000000
							CHANNELS 3 Zrotation Yrotation Xrotation
							JOINT RightHand
							{
								OFFSET -3.444170 -0.000000 -0.000000
								CHANNELS 3 Zrotation Yrotation Xrotation
								JOINT RightFingerBase
								{
									OFFSET 0.000000 0.000000 0.000000
									CHANNELS 3 Zrotation Yrotation Xrotation
									JOINT RightHandIndex1
									{
										OFFSET -0.622530 -0.000000 -0.000000
										CHANNELS 3 Zrotation Yrotation Xrotation
										End Site
										{
											OFFSET 0.000000 0.000000 0.000000
										}
									}
								}
								JOINT RThumb
								{
									OFFSET 0.000000 0.000000 0.000000
									CHANNELS 3 Zrotation Yrotation Xrotation
									End Site
									{
										OFFSET 0.000000 0.000000 0.000000
									}
								}
							}
						}
					}
				}
			}
		}
	}
}
MOTION
Frames: 7
Frame Time: 0.008333
-0.275034 17.386965 -34.422492 1.518197 -6.241447 21.143542 -2.836704 -5.071561 -6.368873 -10.318743 -3.134422 -45.957362 -0.923204 9.596812 22.758469 0.353891 3.938547 14.861214 0.988400 -6.327700 -17.738300 2.647077 1.206202 1.443792 10.371405 0.653593 -3.082541 -0.771267 -9.265692 28.821168 -2.632951 13.507582 17.872421 -0.469100 4.392800 -12.184500 -4.992856 2.824663 -11.111074 -0.136321 3.992344 -8.542603 0.412316 2.644866 -0.030434 -2.179617 -2.388038 -7.492338 3.594109 -3.379758 10.938378 -0.157700 -1.455400 3.490600 12.722230 8.342530 0.432865 -96.895329 29.674975 -44.277653 1.089771 -7.523777 0.097747 -1.187728 0.317057 58.582894 10.752828 -13.449133 -2.563400 -7.125000 0.000000 0.000000 -10.811000 17.316300 7.233800 -13.250601 -7.052719 -1.053501 90.163982 9.362476 35.320327 -45.319255 55.558082 -23.211194 0.589196 -0.614184 -22.472373 -19.309583 -31.524918 10.293200 7.125000 0.000000 0.000000 14.082300 -61.574200 -5.744400
-0.271027 17.384756 -34.298178 1.647370 -5.916346 21.039807 -2.817824 -5.034361 -6.310904 -10.489272 -3.440862 -45.941451 -0.793743 9.866349 23.567162 0.436371 3.360596 14.391884 0.915951 -6.092266 -17.054163 2.609460 1.231340 1.376374 10.426756 0.650836 -3.234025 -0.973806 -9.604260 29.872990 -2.565964 12.783808 19.059819 -0.507152 4.561175 -12.661742 -5.197983 2.694543 -10.914843 -0.139229 3.868549 -8.513978 0.454370 2.572701 0.042118 -2.286492 -2.403935 -7.831910 3.755463 -3.399806 10.864516 -0.055166 -1.465522 3.548709 12.725003 8.319029 0.436168 -96.910657 29.053685 -44.397132 1.078536 -7.437179 0.082632 -1.160062 0.292196 58.782134 10.678156 -12.932063 -2.438232 -7.125000 0.000000 0.000000 -10.905802 17.828032 7.173114 -13.267585 -7.048492 -1.034223 90.256007 8.906687 35.174792 -45.481734 55.631620 -23.328288 0.590741 -0.612328 -22.508424 -19.565499 -31.767327 10.509843 7.125000 0.000000 0.000000 13.966036 -61.873788 -5.793933
-0.267020 17.382547 -34.173864 1.776544 -5.591244 20.936072 -2.798944 -4.997160 -6.252935 -10.659800 -3.747303 -45.925539 -0.664282 10.135885 24.375855 0.518852 2.782645 13.922555 0.843503 -5.856831 -16.370026 2.571844 1.256477 1.308955 10.482108 0.648078 -3.385510 -1.176345 -9.942827 30.924813 -2.498977 12.060033 20.247217 -0.545204 4.729550 -13.138984 -5.403110 2.564424 -10.718611 -0.142137 3.744755 -8.485354 0.496424 2.500536 0.114670 -2.393367 -2.419831 -8.171483 3.916816 -3.419855 10.790654 0.047368 -1.475644 3.606818 12.727776 8.295527 0.439471 -96.925984 28.432395 -44.516610 1.067302 -7.350582 0.067517 -1.132396 0.267336 58.981374 10.603484 -12.414992 -2.313064 -7.125000 0.000000 0.000000 -11.000603 18.339764 7.112428 -13.284569 -7.044265 -1.014946 90.348031 8.450897 35.029256 -45.644213 55.705158 -23.445383 0.592285 -0.610472 -22.544475 -19.821416 -32.009736 10.726485 7.125000 0.000000 0.000000 13.849771 -62.173377 -5.843466
-0.260077 17.383363 -34.049461 1.939855 -5.367436 20.835793 -2.786887 -4.957408 -6.186161 -10.911248 -3.958335 -45.882257 -0.540371 10.371808 25.109897 0.593417 2.259171 13.521087 0.743091 -5.490346 -15.316598 2.531521 1.276489 1.242051 10.415288 0.597965 -3.633384 -1.414395 -10.289846 32.024852 -2.454347 11.463965 21.198060 -0.583459 4.887900 -13.589764 -5.626781 2.498384 -10.572766 -0.171897 3.702265 -8.488773 0.484177 2.470744 0.054767 -2.399680 -2.525352 -8.194653 3.982104 -3.569159 10.819305 0.078674 -1.546970 3.640169 12.716374 8.271304 0.419991 -96.794229 28.068811 -44.516037 1.070346 -7.316588 0.060856 -1.118002 0.262019 59.180723 10.546117 -12.235666 -2.264400 -7.125000 0.000000 0.000000 -11.056970 18.514432 7.106857 -13.295349 -7.031666 -0.988014 90.462876 7.705618 34.854574 -45.786885 55.770967 -23.544482 0.593050 -0.607406 -22.643074 -19.988142 -32.368476 10.930912 7.125000 0.000000 0.000000 13.929455 -62.566150 -6.008019
-0.252679 17.384648 -33.925044 2.108445 -5.159292 20.736049 -2.775885 -4.917261 -6.118026 -11.175208 -4.154614 -45.834743 -0.417318 10.602534 25.832396 0.666758 1.744121 13.130114 0.638354 -5.103594 -14.206064 2.490779 1.295707 1.175227 10.329577 0.540529 -3.896163 -1.657936 -10.638172 33.132348 -2.413173 10.887644 22.112321 -0.621745 5.044700 -14.036451 -5.853319 2.442253 -10.434713 -0.205810 3.672348 -8.497149 0.463533 2.447504 -0.025620 -2.390442 -2.644732 -8.168894 4.032535 -3.738450 10.863808 0.098965 -1.627760 3.669692 12.702780 8.246968 0.396989 -96.639728 27.745080 -44.496899 1.075599 -7.290728 0.055501 -1.105660 0.259725 59.380089 10.491425 -12.108569 -2.227566 -7.125000 0.000000 0.000000 -11.107394 18.636976 7.109809 -13.305170 -7.017772 -0.959899 90.581250 6.915571 34.675385 -45.926493 55.835581 -23.640798 0.593695 -0.604152 -22.751346 -20.141076 -32.745204 11.133449 7.125000 0.000000 0.000000 14.039440 -62.973333 -6.190359
-0.245696 17.389844 -33.802771 2.238383 -5.094533 20.643829 -2.768456 -4.880675 -6.047847 -11.449374 -4.202119 -45.759365 -0.303447 10.794640 26.452490 0.701046 1.407451 12.729451 0.585563 -4.897311 -13.616351 2.449352 1.316744 1.101681 10.207472 0.604608 -4.210886 -1.915770 -10.988850 34.270149 -2.406285 10.466093 23.250898 -0.567395 4.807900 -13.364611 -6.048659 2.437055 -10.283125 -0.246757 3.695550 -8.517567 0.438880 2.455282 -0.171782 -2.411838 -2.659766 -8.050099 4.148049 -3.778169 10.788667 0.165951 -1.646758 3.611931 12.681841 8.211523 0.376936 -96.498160 27.541211 -44.506163 1.104678 -7.327597 0.051775 -1.102366 0.257094 59.620040 10.572019 -12.057240 -2.231801 -7.125000 0.000000 0.000000 -11.058319 18.686303 7.065003 -13.317332 -7.002540 -0.927122 90.702575 6.090909 34.536378 -45.943985 55.844932 -23.641630 0.594511 -0.602874 -22.867802 -20.118459 -32.924765 11.174354 7.125000 0.000000 0.000000 14.204457 -63.142133 -6.320857
-0.238864 17.396470 -33.681282 2.354181 -5.082231 20.554362 -2.762334 -4.845392 -5.976922 -11.727272 -4.195195 -45.673793 -0.192934 10.972617 27.035119 0.721046 1.136042 12.325242 0.551775 -4.757054 -13.217181 2.407674 1.338446 1.025676 10.072053 0.713144 -4.544612 -2.178834 -11.340387 35.419036 -2.411941 10.101164 24.471540 -0.479154 4.427100 -12.283554 -6.232585 2.450490 -10.126585 -0.290276 3.738186 -8.542391 0.412760 2.474408 -0.342008 -2.444440 -2.636624 -7.897265 4.287374 -3.770484 10.669753 0.250022 -1.643150 3.522238 12.658216 8.172013 0.357962 -96.361322 27.381194 -44.525819 1.142473 -7.387416 0.048645 -1.102383 0.254340 59.874839 10.702107 -12.033632 -2.251062 -7.125000 0.000000 0.000000 -10.972843 18.708844 7.002723 -13.330351 -6.986819 -0.892640 90.824981 5.253581 34.412071 -45.916800 55.834064 -23.607528 0.595390 -0.602317 -22.987253 -20.031616 -33.032191 11.156124 7.125000 0.000000 0.000000 14.389609 -63.223720 -6.432388
